# xmcd
#
# Track frame offsets:
#	150
#	19578
#	32744
#	47973
#	58083
#	87231
#	95890
#	119995
#	133690
#	145983
#	163797
#	174425
#
# Disc length: 2500 seconds
# Revision: 0
# Processed by: cddbd v1.5.2PL0 Copyright (c) Steve Scherf et al.
# Submitted via: dBpowerAMP V12.0
#
DISCID=b109c20c
DTITLE=Jewel Brown - Milton Hopkins and Jewel Brown
DYEAR=2012
DGENRE=Blues
TTITLE0=Jerry
TTITLE1=Can't Get Enough of You
TTITLE2=Daddy Daddy
TTITLE3=The Whale Has Swallowed Me
TTITLE4=Evening Breeze
TTITLE5=There's a Light
TTITLE6=Cry Me a River
TTITLE7=I'm Shakin'
TTITLE8=Back to the Shimmy
TTITLE9=I'm Leaving You Now
TTITLE10=How Can I Lose
TTITLE11=Tater Tots
EXTD=
EXTT0=
EXTT1=
EXTT2=
EXTT3=
EXTT4=
EXTT5=
EXTT6=
EXTT7=
EXTT8=
EXTT9=
EXTT10=
EXTT11=
PLAYORDER=
